HIERARCHY
ROOT Hips
{
  OFFSET 5.72205e-005 65.662 3.42586
  CHANNELS 6 Xposition Yposition Zposition Zrotation Xrotation Yrotation
  JOINT Chest
  {
    OFFSET 0 8.7983 -4.7612
    CHANNELS 6 Xposition Yposition Zposition Zrotation Xrotation Yrotation
    JOINT Chest2
    {
      OFFSET 0 8.0291 0.4195
      CHANNELS 6 Xposition Yposition Zposition Zrotation Xrotation Yrotation
      JOINT Chest3
      {
        OFFSET 0 9.9351 -2.2114
        CHANNELS 6 Xposition Yposition Zposition Zrotation Xrotation Yrotation
        JOINT Neck
        {
          OFFSET 0 22.3885 -0.4656
          CHANNELS 6 Xposition Yposition Zposition Zrotation Xrotation Yrotation
          JOINT Head
          {
            OFFSET -0.0001 12.643 3.4389
            CHANNELS 6 Xposition Yposition Zposition Zrotation Xrotation Yrotation
            End Site
            {
              OFFSET 0.0001 17.6655 0.5274
            }
          }
        }
        JOINT LeftCollar
        {
          OFFSET 2.2603 21.606 7.4023
          CHANNELS 6 Xposition Yposition Zposition Zrotation Xrotation Yrotation
          JOINT LeftShoulder
          {
            OFFSET 13.5163 -1.1332 -5.0146
            CHANNELS 6 Xposition Yposition Zposition Zrotation Xrotation Yrotation
            JOINT LeftElbow
            {
              OFFSET -0.0995 -28.05 -0.2431
              CHANNELS 6 Xposition Yposition Zposition Zrotation Xrotation Yrotation
              JOINT LeftWrist
              {
                OFFSET 0.0679 -23.3996 -0.1402
                CHANNELS 6 Xposition Yposition Zposition Zrotation Xrotation Yrotation
                JOINT LeftFinger1
                {
                  OFFSET 0.7932 -9.069 2.5189
                  CHANNELS 6 Xposition Yposition Zposition Zrotation Xrotation Yrotation
                  JOINT LeftFinger11
                  {
                    OFFSET -0.8272 -3.3923 0.5977
                    CHANNELS 6 Xposition Yposition Zposition Zrotation Xrotation Yrotation
                    JOINT LeftFinger12
                    {
                      OFFSET -0.5649 -2.3158 0.4082
                      CHANNELS 6 Xposition Yposition Zposition Zrotation Xrotation Yrotation
                      End Site
                      {
                        OFFSET -0.4919 -1.6479 0.2673
                      }
                    }
                  }
                }
                JOINT LeftFinger2
                {
                  OFFSET 0.9159 -9.2044 0.2193
                  CHANNELS 6 Xposition Yposition Zposition Zrotation Xrotation Yrotation
                  JOINT LeftFinger21
                  {
                    OFFSET 0.0117 -4.1944 -0.0248
                    CHANNELS 6 Xposition Yposition Zposition Zrotation Xrotation Yrotation
                    JOINT LeftFinger22
                    {
                      OFFSET 0.0071 -2.3249 -0.0142
                      CHANNELS 6 Xposition Yposition Zposition Zrotation Xrotation Yrotation
                      End Site
                      {
                        OFFSET -0.1475 -2.0882 0.0028
                      }
                    }
                  }
                }
                JOINT LeftFinger3
                {
                  OFFSET 0.6113 -8.7231 -2.0637
                  CHANNELS 6 Xposition Yposition Zposition Zrotation Xrotation Yrotation
                  JOINT LeftFinger31
                  {
                    OFFSET -0.1927 -3.8059 -0.2383
                    CHANNELS 6 Xposition Yposition Zposition Zrotation Xrotation Yrotation
                    JOINT LeftFinger32
                    {
                      OFFSET -0.1091 -2.1688 -0.1362
                      CHANNELS 6 Xposition Yposition Zposition Zrotation Xrotation Yrotation
                      End Site
                      {
                        OFFSET -0.2358 -1.9176 -0.0906
                      }
                    }
                  }
                }
                JOINT LeftFinger4
                {
                  OFFSET -0.6151 -8.0947 -3.5641
                  CHANNELS 6 Xposition Yposition Zposition Zrotation Xrotation Yrotation
                  JOINT LeftFinger41
                  {
                    OFFSET -0.4882 -2.341 -0.6462
                    CHANNELS 6 Xposition Yposition Zposition Zrotation Xrotation Yrotation
                    JOINT LeftFinger42
                    {
                      OFFSET -0.3575 -1.7167 -0.4742
                      CHANNELS 6 Xposition Yposition Zposition Zrotation Xrotation Yrotation
                      End Site
                      {
                        OFFSET -0.4187 -1.5237 -0.3496
                      }
                    }
                  }
                }
                JOINT LeftFinger0
                {
                  OFFSET -1.42 -1.8761 1.4223
                  CHANNELS 6 Xposition Yposition Zposition Zrotation Xrotation Yrotation
                  JOINT LeftFinger01
                  {
                    OFFSET -1.1471 -3.4929 2.6334
                    CHANNELS 6 Xposition Yposition Zposition Zrotation Xrotation Yrotation
                    JOINT LeftFinger02
                    {
                      OFFSET -0.823 -2.3 1.6571
                      CHANNELS 6 Xposition Yposition Zposition Zrotation Xrotation Yrotation
                      End Site
                      {
                        OFFSET -0.5822 -1.6914 1.1582
                      }
                    }
                  }
                }
              }
            }
          }
        }
        JOINT RightCollar
        {
          OFFSET -2.2603 21.606 7.4023
          CHANNELS 6 Xposition Yposition Zposition Zrotation Xrotation Yrotation
          JOINT RightShoulder
          {
            OFFSET -13.5187 -1.1334 -5.0155
            CHANNELS 6 Xposition Yposition Zposition Zrotation Xrotation Yrotation
            JOINT RightElbow
            {
              OFFSET 0.0994 -28.0499 -0.2431
              CHANNELS 6 Xposition Yposition Zposition Zrotation Xrotation Yrotation
              JOINT RightWrist
              {
                OFFSET -0.0679 -23.3996 -0.1402
                CHANNELS 6 Xposition Yposition Zposition Zrotation Xrotation Yrotation
                JOINT RightFinger1
                {
                  OFFSET -0.7932 -9.0691 2.5189
                  CHANNELS 6 Xposition Yposition Zposition Zrotation Xrotation Yrotation
                  JOINT RightFinger11
                  {
                    OFFSET 0.8272 -3.3923 0.5977
                    CHANNELS 6 Xposition Yposition Zposition Zrotation Xrotation Yrotation
                    JOINT RightFinger12
                    {
                      OFFSET 0.565 -2.3158 0.4082
                      CHANNELS 6 Xposition Yposition Zposition Zrotation Xrotation Yrotation
                      End Site
                      {
                        OFFSET 0.4919 -1.6479 0.2673
                      }
                    }
                  }
                }
                JOINT RightFinger2
                {
                  OFFSET -0.916 -9.2044 0.2193
                  CHANNELS 6 Xposition Yposition Zposition Zrotation Xrotation Yrotation
                  JOINT RightFinger21
                  {
                    OFFSET -0.0117 -4.1944 -0.0248
                    CHANNELS 6 Xposition Yposition Zposition Zrotation Xrotation Yrotation
                    JOINT RightFinger22
                    {
                      OFFSET -0.0071 -2.3249 -0.0142
                      CHANNELS 6 Xposition Yposition Zposition Zrotation Xrotation Yrotation
                      End Site
                      {
                        OFFSET 0.1475 -2.0882 0.0028
                      }
                    }
                  }
                }
                JOINT RightFinger3
                {
                  OFFSET -0.6113 -8.7231 -2.0637
                  CHANNELS 6 Xposition Yposition Zposition Zrotation Xrotation Yrotation
                  JOINT RightFinger31
                  {
                    OFFSET 0.1927 -3.8059 -0.2383
                    CHANNELS 6 Xposition Yposition Zposition Zrotation Xrotation Yrotation
                    JOINT RightFinger32
                    {
                      OFFSET 0.1091 -2.1688 -0.1362
                      CHANNELS 6 Xposition Yposition Zposition Zrotation Xrotation Yrotation
                      End Site
                      {
                        OFFSET 0.2358 -1.9176 -0.0906
                      }
                    }
                  }
                }
                JOINT RightFinger4
                {
                  OFFSET 0.6151 -8.0947 -3.564
                  CHANNELS 6 Xposition Yposition Zposition Zrotation Xrotation Yrotation
                  JOINT RightFinger41
                  {
                    OFFSET 0.4882 -2.341 -0.6462
                    CHANNELS 6 Xposition Yposition Zposition Zrotation Xrotation Yrotation
                    JOINT RightFinger42
                    {
                      OFFSET 0.3574 -1.7166 -0.4742
                      CHANNELS 6 Xposition Yposition Zposition Zrotation Xrotation Yrotation
                      End Site
                      {
                        OFFSET 0.4187 -1.5237 -0.3496
                      }
                    }
                  }
                }
                JOINT RightFinger0
                {
                  OFFSET 1.4199 -1.8761 1.4221
                  CHANNELS 6 Xposition Yposition Zposition Zrotation Xrotation Yrotation
                  JOINT RightFinger01
                  {
                    OFFSET 1.1472 -3.4929 2.6336
                    CHANNELS 6 Xposition Yposition Zposition Zrotation Xrotation Yrotation
                    JOINT RightFinger02
                    {
                      OFFSET 0.8229 -2.3 1.6571
                      CHANNELS 6 Xposition Yposition Zposition Zrotation Xrotation Yrotation
                      End Site
                      {
                        OFFSET 0.5822 -1.6914 1.1582
                      }
                    }
                  }
                }
              }
            }
          }
        }
      }
    }
  }
  JOINT RightHip
  {
    OFFSET -9.412 3.9771 -0.7758
    CHANNELS 6 Xposition Yposition Zposition Zrotation Xrotation Yrotation
    JOINT RightKnee
    {
      OFFSET -0.7531 -40.938 0
      CHANNELS 6 Xposition Yposition Zposition Zrotation Xrotation Yrotation
      JOINT RightAnkle
      {
        OFFSET 0 -40.1986 0
        CHANNELS 6 Xposition Yposition Zposition Zrotation Xrotation Yrotation
        JOINT RightToe
        {
          OFFSET 0 -4.4182 9.239
          CHANNELS 6 Xposition Yposition Zposition Zrotation Xrotation Yrotation
          End Site
          {
            OFFSET 0 0 6.1981
          }
        }
      }
    }
  }
  JOINT LeftHip
  {
    OFFSET 9.4119 3.9773 -0.7758
    CHANNELS 6 Xposition Yposition Zposition Zrotation Xrotation Yrotation
    JOINT LeftKnee
    {
      OFFSET 0.7532 -40.9383 0
      CHANNELS 6 Xposition Yposition Zposition Zrotation Xrotation Yrotation
      JOINT LeftAnkle
      {
        OFFSET 0 -40.1986 0
        CHANNELS 6 Xposition Yposition Zposition Zrotation Xrotation Yrotation
        JOINT LeftToe
        {
          OFFSET 0 -4.4182 9.239
          CHANNELS 6 Xposition Yposition Zposition Zrotation Xrotation Yrotation
          End Site
          {
            OFFSET 0 0 6.1981
          }
        }
      }
    }
  }
}
MOTION
Frames:	4
Frame Time:	0.0333333
5.72205e-005 65.662 3.42586 0 0 -0 0 8.7983 -4.7612 0 0 -0 0 8.0291 0.4195 0 0 -0 0 9.9351 -2.2114 0 0 -0 0 22.3885 -0.4656 0 0 -0 -0.0001 12.643 3.4389 0 0 -0 2.2603 21.606 7.4023 0 0 -12.5014 13.5163 -1.1332 -5.0146 88.1196 14.2451 10.6914 -0.0995 -28.05 -0.2431 -0.00160068 -0.00239207 0.000740045 0.0679 -23.3996 -0.1402 -8.4365e-005 7.00714e-005 -9.52055e-007 0.7932 -9.069 2.5189 9.93923e-017 -1.98785e-016 -1.59028e-015 -0.8272 -3.3923 0.5977 9.93923e-017 -5.96354e-016 -1.59028e-015 -0.5649 -2.3158 0.4082 -9.93923e-017 -5.96354e-016 -1.59028e-015 0.9159 -9.2044 0.2193 9.93923e-017 -1.98785e-016 -1.59028e-015 0.0117 -4.1944 -0.0248 -0.0128176 0.00232552 8.52707e-005 0.0071 -2.3249 -0.0142 9.93923e-017 5.96354e-016 -0 0.6113 -8.7231 -2.0637 9.93923e-017 -1.98785e-016 -1.59028e-015 -0.1927 -3.8059 -0.2383 -0.0160551 0.00299681 0.000857156 -0.1091 -2.1688 -0.1362 -2.48481e-016 0 3.18055e-015 -0.6151 -8.0947 -3.5641 9.93923e-017 -1.98785e-016 -1.59028e-015 -0.4882 -2.341 -0.6462 -0.0125865 0.0031206 0.00282719 -0.3575 -1.7167 -0.4742 0 1.98785e-016 -0 -1.42 -1.8761 1.4223 9.93923e-017 -1.98785e-016 -1.59028e-015 -1.1471 -3.4929 2.6334 9.93923e-017 -5.96354e-016 -1.59028e-015 -0.823 -2.3 1.6571 -9.93923e-017 -5.96354e-016 -1.59028e-015 -2.2603 21.606 7.4023 -0.865644 0.16582 7.03859 -13.5187 -1.1334 -5.0155 -88.0329 10.2057 -10.5567 0.0994 -28.0499 -0.2431 0.0015593 -0.00248883 -0.000788628 -0.0679 -23.3996 -0.1402 7.87605e-005 4.10553e-005 1.24965e-005 -0.7932 -9.0691 2.5189 -3.97569e-016 -7.95139e-016 3.18055e-015 0.8272 -3.3923 0.5977 -1.98785e-016 -3.97569e-016 3.18055e-015 0.565 -2.3158 0.4082 -1.98785e-016 0 3.18055e-015 -0.916 -9.2044 0.2193 -3.97569e-016 -7.95139e-016 3.18055e-015 -0.0117 -4.1944 -0.0248 0.0129473 0.00231697 -8.70038e-005 -0.0071 -2.3249 -0.0142 9.93923e-017 -7.95139e-016 1.59028e-015 -0.6113 -8.7231 -2.0637 -3.97569e-016 -7.95139e-016 3.18055e-015 0.1927 -3.8059 -0.2383 0.0163314 0.00303369 -0.000872333 0.1091 -2.1688 -0.1362 3.97569e-016 7.95139e-016 -3.18055e-015 0.6151 -8.0947 -3.564 -3.97569e-016 -7.95139e-016 3.18055e-015 0.4882 -2.341 -0.6462 0.0145763 0.00367772 -0.00326275 0.3574 -1.7166 -0.4742 9.93923e-017 -3.97569e-016 -0 1.4199 -1.8761 1.4221 -3.97569e-016 -7.95139e-016 3.18055e-015 1.1472 -3.4929 2.6336 -1.98785e-016 -3.97569e-016 3.18055e-015 0.8229 -2.3 1.6571 -1.98785e-016 0 3.18055e-015 -9.412 3.9771 -0.7758 3.42482 1.32465 -0.0626183 -0.7531 -40.938 0 0.000117508 0.717283 0.000978199 0 -40.1986 0 -3.4257 -2.04197 -0.0604716 8.88178e-016 -4.4182 9.239 6.47761e-025 0 -0 9.4119 3.9773 -0.7758 -3.42483 1.34017 0.0627307 0.7532 -40.9383 -2.22045e-016 -0.000193936 0.682302 -0.0013703 -8.88179e-016 -40.1986 0 3.42574 -2.02253 0.0595886 -8.88178e-016 -4.4182 9.239 -8.45714e-024 0 -7.40531e-025 
4.46099 29.4681 -25.3107 0 0 -3.23754e-010 0 8.7983 -4.7612 0.124319 -0.100033 -0.0456026 -8.88179e-016 8.0291 0.4195 0.248558 -0.200165 -0.0909883 -8.88179e-016 9.9351 -2.2114 0.24855 -0.200159 -0.0909854 8.88178e-016 22.3885 -0.4656 0.206906 -0.0593245 0.157296 -0.0001 12.643 3.4389 -0.00071363 0.121501 0.0602749 2.2603 21.606 7.4023 -11.3588 0.235411 -14.5825 13.5163 -1.1332 -5.0146 63.8871 -16.1125 8.73169 -0.0995 -28.05 -0.2431 -23.1216 -20.8719 -11.3153 0.0679 -23.3996 -0.1402 -2.8416 1.14441 -23.1582 0.7932 -9.069 2.5189 2.43524e-006 -1.45052e-007 1.49082e-006 -0.8272 -3.3923 0.5977 -3.18055e-015 -3.18055e-015 -3.18055e-015 -0.5649 -2.3158 0.4082 3.08557e-006 8.08459e-006 7.34713e-006 0.9159 -9.2044 0.2193 2.43524e-006 -1.45052e-007 1.49082e-006 0.0117 -4.1944 -0.0248 -0.0128142 0.00232705 8.99908e-005 0.0071 -2.3249 -0.0142 6.34039e-006 -1.03688e-005 -1.41223e-005 0.6113 -8.7231 -2.0637 2.43524e-006 -1.45052e-007 1.49082e-006 -0.1927 -3.8059 -0.2383 -0.0160705 0.00300005 0.000859028 -0.1091 -2.1688 -0.1362 5.70953e-006 -1.76693e-005 -1.11448e-005 -0.6151 -8.0947 -3.5641 2.43524e-006 -1.45052e-007 1.49082e-006 -0.4882 -2.341 -0.6462 -0.0125685 0.00312828 0.00283187 -0.3575 -1.7167 -0.4742 3.18055e-015 -9.64517e-007 -4.77083e-015 -1.42 -1.8761 1.4223 2.43524e-006 -1.45052e-007 1.49082e-006 -1.1471 -3.4929 2.6334 -3.18055e-015 -3.18055e-015 -3.18055e-015 -0.823 -2.3 1.6571 3.08557e-006 8.08459e-006 7.34713e-006 -2.2603 21.606 7.4023 13.1454 0.502532 9.036 -13.5187 -1.1334 -5.0155 -63.8755 -18.4645 -7.01135 0.0994 -28.0499 -0.2431 20.7442 -14.3514 9.81443 -0.0679 -23.3996 -0.1402 5.61656 -0.184614 -34.7371 -0.7932 -9.0691 2.5189 -9.27217e-007 1.86294e-007 -2.51983e-006 0.8272 -3.3923 0.5977 -1.76556e-031 -1.27222e-014 -7.95139e-016 0.565 -2.3158 0.4082 7.95139e-016 3.18055e-015 -7.95139e-016 -0.916 -9.2044 0.2193 -9.27217e-007 1.86294e-007 -2.51983e-006 -0.0117 -4.1944 -0.0248 0.0128986 0.00230092 -8.37907e-005 -0.0071 -2.3249 -0.0142 1.41653e-006 2.78946e-007 -2.28484e-006 -0.6113 -8.7231 -2.0637 -9.27217e-007 1.86294e-007 -2.51983e-006 0.1927 -3.8059 -0.2383 0.0163454 0.00304087 -0.000877994 0.1091 -2.1688 -0.1362 2.21485e-007 -2.64951e-006 -5.60267e-007 0.6151 -8.0947 -3.564 -9.27217e-007 1.86294e-007 -2.51983e-006 0.4882 -2.341 -0.6462 0.0145794 0.00366645 -0.00326257 0.3574 -1.7166 -0.4742 2.58845e-006 1.4359e-007 -2.16729e-006 1.4199 -1.8761 1.4221 -9.27217e-007 1.86294e-007 -2.51983e-006 1.1472 -3.4929 2.6336 -1.76556e-031 -1.27222e-014 -7.95139e-016 0.8229 -2.3 1.6571 7.95139e-016 3.18055e-015 -7.95139e-016 -9.412 3.9771 -0.7758 -0.0410237 -34.5061 -4.67146 -0.7531 -40.938 -3.10862e-015 -166.688 84.1989 166.931 0 -40.1986 2.22045e-015 -7.22058 24.0304 -2.38115 0 -4.4182 9.239 1.19271e-015 7.95139e-016 -6.4605e-016 9.4119 3.9773 -0.7758 0.0741147 -34.4525 4.66898 0.7532 -40.9383 -2.22045e-015 166.718 84.2569 -166.95 -1.77636e-015 -40.1986 -1.55431e-015 7.26269 23.7001 2.34749 0 -4.4182 9.239 -7.95139e-016 -1.43125e-014 -3.47873e-016 
7.92823 1.26335 -47.4895 -0 0 2.65941e-009 0 8.7983 -4.7612 0.220977 -0.166662 -0.0813752 -8.88178e-016 8.0291 0.4195 0.441711 -0.333629 -0.162105 1.77636e-015 9.9351 -2.2114 0.44171 -0.333629 -0.162105 8.88178e-016 22.3885 -0.4656 0.411866 -0.123478 0.316702 -0.0001 12.643 3.4389 -0.000256257 0.243044 0.120647 2.2603 21.606 7.4023 -20.1859 0.332371 -16.2564 13.5163 -1.1332 -5.0146 49.5666 -40.8865 9.03497 -0.0995 -28.05 -0.2431 -41.4246 -37.2356 -20.3816 0.0679 -23.3996 -0.1402 -5.18018 1.72476 -41.1444 0.7932 -9.069 2.5189 7.24186e-007 5.65878e-006 7.18084e-006 -0.8272 -3.3923 0.5977 1.28046e-006 3.2126e-006 -3.68873e-006 -0.5649 -2.3158 0.4082 -1.28046e-006 -3.2126e-006 3.68873e-006 0.9159 -9.2044 0.2193 7.24186e-007 5.65878e-006 7.18084e-006 0.0117 -4.1944 -0.0248 -0.0127999 0.00232683 8.664e-005 0.0071 -2.3249 -0.0142 1.21765e-006 2.42171e-007 2.04887e-006 0.6113 -8.7231 -2.0637 7.24186e-007 5.65878e-006 7.18084e-006 -0.1927 -3.8059 -0.2383 -0.0160408 0.00299664 0.000859994 -0.1091 -2.1688 -0.1362 -1.24972e-006 -1.08268e-006 8.19878e-007 -0.6151 -8.0947 -3.5641 7.24186e-007 5.65878e-006 7.18084e-006 -0.4882 -2.341 -0.6462 -0.0125691 0.00312028 0.00282006 -0.3575 -1.7167 -0.4742 -5.24972e-007 4.42775e-006 8.0005e-006 -1.42 -1.8761 1.4223 7.24186e-007 5.65878e-006 7.18084e-006 -1.1471 -3.4929 2.6334 1.28046e-006 3.2126e-006 -3.68873e-006 -0.823 -2.3 1.6571 -1.28046e-006 -3.2126e-006 3.68873e-006 -2.2603 21.606 7.4023 23.983 0.667638 10.5328 -13.5187 -1.1334 -5.0155 -47.5244 -41.5155 -5.44137 0.0994 -28.0499 -0.2431 36.9836 -25.5825 17.0558 -0.0679 -23.3996 -0.1402 9.55617 -0.930365 -61.8108 -0.7932 -9.0691 2.5189 -1.43125e-014 3.18055e-015 1.11319e-014 0.8272 -3.3923 0.5977 -4.77083e-015 -6.36111e-015 7.95139e-015 0.565 -2.3158 0.4082 -9.54166e-015 -9.54166e-015 1.27222e-014 -0.916 -9.2044 0.2193 -1.43125e-014 3.18055e-015 1.11319e-014 -0.0117 -4.1944 -0.0248 0.0129582 0.00231226 -9.30979e-005 -0.0071 -2.3249 -0.0142 -3.18055e-015 -3.18055e-015 7.95139e-015 -0.6113 -8.7231 -2.0637 -1.43125e-014 3.18055e-015 1.11319e-014 0.1927 -3.8059 -0.2383 0.0163387 0.00302972 -0.000877952 0.1091 -2.1688 -0.1362 -3.79881e-006 1.40699e-006 3.85806e-006 0.6151 -8.0947 -3.564 -1.43125e-014 3.18055e-015 1.11319e-014 0.4882 -2.341 -0.6462 0.0145852 0.00366659 -0.00326239 0.3574 -1.7166 -0.4742 3.18055e-015 3.18055e-015 1.59028e-015 1.4199 -1.8761 1.4221 -1.43125e-014 3.18055e-015 1.11319e-014 1.1472 -3.4929 2.6336 -4.77083e-015 -6.36111e-015 7.95139e-015 0.8229 -2.3 1.6571 -9.54166e-015 -9.54166e-015 1.27222e-014 -9.412 3.9771 -0.7758 -8.30276 -52.2517 -19.9169 -0.7531 -40.938 -3.55271e-015 -177.316 13.2856 168.971 -8.88179e-016 -40.1986 -3.55271e-015 -5.72609 37.8035 -11.0613 0 -4.4182 9.239 7.95139e-016 6.36111e-015 -0 9.4119 3.9773 -0.7758 8.34842 -51.9979 19.9238 0.7532 -40.9383 7.10543e-015 177.343 13.2599 -168.978 0 -40.1986 0 5.96663 36.9519 10.9314 0 -4.4182 9.239 -3.73077e-007 6.68891e-008 2.0545e-007 
8.42178 -2.78418 -50.4897 -5.78278e-008 3.41915e-008 2.27234e-009 1.77636e-015 8.7983 -4.7612 0.235228 -0.133665 -0.0871093 -1.77636e-015 8.0291 0.4195 0.470264 -0.267691 -0.173673 0 9.9351 -2.2114 0.470255 -0.267686 -0.17367 1.77636e-015 22.3885 -0.4656 0.611198 -0.202915 0.482081 -0.0001 12.643 3.4389 0.00418462 0.364712 0.181311 2.2603 21.606 7.4023 -21.4654 0.0156628 -16.7085 13.5163 -1.1332 -5.0146 48.2226 -44.3547 9.60974 -0.0995 -28.05 -0.2431 -43.8147 -39.4943 -21.56 0.0679 -23.3996 -0.1402 -6.27759 1.63446 -43.6474 0.7932 -9.069 2.5189 -1.17153e-006 -3.18055e-015 1.01211e-006 -0.8272 -3.3923 0.5977 6.11852e-006 -2.74277e-006 3.16185e-006 -0.5649 -2.3158 0.4082 -1.40555e-006 -1.78325e-006 2.80374e-006 0.9159 -9.2044 0.2193 -1.17153e-006 -3.18055e-015 1.01211e-006 0.0117 -4.1944 -0.0248 -0.012813 0.00232016 8.72126e-005 0.0071 -2.3249 -0.0142 2.10807e-006 -2.0003e-008 -2.325e-007 0.6113 -8.7231 -2.0637 -1.17153e-006 -3.18055e-015 1.01211e-006 -0.1927 -3.8059 -0.2383 -0.0160365 0.00298506 0.000858296 -0.1091 -2.1688 -0.1362 -0 0 3.18055e-015 -0.6151 -8.0947 -3.5641 -1.17153e-006 -3.18055e-015 1.01211e-006 -0.4882 -2.341 -0.6462 -0.012548 0.00310869 0.00282087 -0.3575 -1.7167 -0.4742 0 0 -9.54166e-015 -1.42 -1.8761 1.4223 -1.17153e-006 -3.18055e-015 1.01211e-006 -1.1471 -3.4929 2.6334 6.11852e-006 -2.74277e-006 3.16185e-006 -0.823 -2.3 1.6571 -1.40555e-006 -1.78325e-006 2.80374e-006 -2.2603 21.606 7.4023 25.3649 0.320707 10.5271 -13.5187 -1.1334 -5.0155 -45.3442 -44.9503 -5.352 0.0994 -28.0499 -0.2431 39.3984 -27.2557 18.1116 -0.0679 -23.3996 -0.1402 10.498 -0.977291 -65.7536 -0.7932 -9.0691 2.5189 6.36111e-015 3.18055e-015 -0 0.8272 -3.3923 0.5977 -3.53113e-031 -6.36111e-015 -3.18055e-015 0.565 -2.3158 0.4082 -2.19189e-006 4.3021e-006 1.35297e-006 -0.916 -9.2044 0.2193 6.36111e-015 3.18055e-015 -0 -0.0117 -4.1944 -0.0248 0.0129627 0.00231383 -8.94526e-005 -0.0071 -2.3249 -0.0142 9.34496e-008 2.77815e-006 -2.09735e-006 -0.6113 -8.7231 -2.0637 6.36111e-015 3.18055e-015 -0 0.1927 -3.8059 -0.2383 0.0163397 0.00302934 -0.000876465 0.1091 -2.1688 -0.1362 3.74801e-006 1.21763e-006 -8.09471e-007 0.6151 -8.0947 -3.564 6.36111e-015 3.18055e-015 -0 0.4882 -2.341 -0.6462 0.0145678 0.00367986 -0.00325981 0.3574 -1.7166 -0.4742 2.61745e-006 3.13317e-006 -2.02758e-006 1.4199 -1.8761 1.4221 6.36111e-015 3.18055e-015 -0 1.1472 -3.4929 2.6336 -3.53113e-031 -6.36111e-015 -3.18055e-015 0.8229 -2.3 1.6571 -2.19189e-006 4.3021e-006 1.35297e-006 -9.412 3.9771 -0.7758 -15.5756 -26.6498 -27.3248 -0.7531 -40.938 0 -179.301 3.89399 164.783 -1.77636e-015 -40.1986 7.10543e-015 -13.4679 13.447 -14.7277 -1.77636e-015 -4.4182 9.239 -5.28109e-007 -1.01501e-007 1.06666e-006 9.4119 3.9773 -0.7758 15.7303 -25.545 27.3291 0.7532 -40.9383 0 179.31 3.88431 -164.751 0 -40.1986 7.10543e-015 13.9856 11.7876 14.7909 3.55271e-015 -4.4182 9.239 1.41245e-030 -2.54444e-014 3.18055e-015 
